<svg xmlns="http://www.w3.org/2000/svg" width="20" height="20" viewBox="0 0 20 20" version="1.1">
	<path d="M7.40834 0.78082C5.80982 0.8885 4.4131599999999995 2.03386 3.99138 3.5829199999999997C3.9011 3.9145600000000003 3.87656 4.0936 3.86568 4.5C3.85094 5.051340000000001 3.91562 5.4613000000000005 4.0923 5.93602C4.84174 7.94978 7.1039200000000005 8.95754 9.1 8.16686C11.16626 7.348400000000001 12.1051 4.9437 11.1395 2.94292C10.6102 1.8461600000000002 9.62158 1.0802 8.426 0.8405400000000001C8.26434 0.80814 7.685499999999999 0.7512000000000001 7.640000000000001 0.76324C7.634500000000001 0.7647 7.530259999999999 0.7726000000000001 7.40834 0.78082M7.37 2.29414C6.636240000000001 2.39372 5.962720000000001 2.87278 5.6231 3.53666C5.153840000000001 4.4539800000000005 5.32184 5.52342 6.04944 6.2504C6.44308 6.64372 6.91704 6.86492 7.48 6.9181C8.16498 6.98282 8.8354 6.7406 9.3242 6.251799999999999C9.96728 5.60872 10.178560000000001 4.68962 9.881 3.8298200000000002C9.61008 3.04706 8.909980000000001 2.45504 8.084439999999999 2.31064C7.9244200000000005 2.28266 7.52296 2.27338 7.37 2.29414M6.65 9.6705C5.5626999999999995 9.75074 4.62554 9.92906 3.69 10.23376C2.56168 10.601220000000001 1.5775800000000002 11.110899999999999 0.9274 11.66452L0.76 11.80706 0.76 13.97354L0.76 16.14 6.92 16.14L13.08 16.14 13.08 15.39L13.08 14.64 7.68 14.64L2.2800000000000002 14.64 2.2800000000000002 13.58182L2.2800000000000002 12.52366 2.485 12.40052C3.18202 11.981880000000002 4.2131799999999995 11.59458 5.17 11.392000000000001C6.50302 11.10978 8.03984 11.06278 9.450000000000001 11.261120000000002C10.09812 11.35228 10.709259999999999 11.49514 11.313540000000001 11.69674L11.66346 11.81348 11.683320000000002 11.76174C11.91796 11.15038 12.18 10.446720000000001 12.18 10.42806C12.18 10.39866 11.948260000000001 10.31322 11.48 10.16998C10.575719999999999 9.89336 9.65362 9.7322 8.5634 9.66024C8.15618 9.63336 7.07482 9.63916 6.65 9.6705M15.88 10.03278C15.852500000000001 10.03682 15.762500000000001 10.04986 15.68 10.061760000000001C14.79114 10.18994 13.98618 10.74818 13.502460000000001 11.571880000000002C13.28542 11.941479999999999 13.147480000000002 12.40872 13.10888 12.905000000000001L13.095260000000001 13.08 13.846720000000001 13.08L14.59818 13.08 14.6081 13.015C14.61354 12.97924 14.62338 12.90186 14.62996 12.84302C14.661420000000001 12.56124 14.80144 12.27044 15.018979999999999 12.03502C15.262960000000001 11.770999999999999 15.55386 11.609179999999999 15.889800000000001 11.5506C16.187739999999998 11.49864 16.45108 11.52298 16.72804 11.6281C17.16712 11.794760000000002 17.52248 12.17922 17.6608 12.6373L17.705280000000002 12.784580000000002 16.56264 13.927360000000002L15.42 15.07012 15.42 15.81506L15.42 16.56 16.17 16.56L16.92 16.56 16.92 16.13494L16.92 15.70988 18.081780000000002 14.54994L19.24358 13.39 19.23064 13.08C19.20732 12.52136 19.113979999999998 12.125039999999998 18.910619999999998 11.72122C18.510360000000002 10.92642 17.779600000000002 10.33436 16.93156 10.11784C16.62634 10.03992 16.11384 9.99846 15.88 10.03278M15.42 18.48L15.42 19.26 16.17 19.26L16.92 19.26 16.92 18.48L16.92 17.7 16.17 17.7L15.42 17.7 15.42 18.48" stroke="none" fill="#5136d4" fill-rule="evenodd"></path>
</svg>