<svg xmlns="http://www.w3.org/2000/svg" width="20" height="20" viewBox="0 0 20 20" version="1.1">
	<path d="M3.86 5.38L3.86 10 4.61 10L5.36 10 5.36 6.140000000000001L5.36 2.2800000000000002 9.83496 2.2800000000000002L14.30992 2.2800000000000002 16.014960000000002 3.98496L17.72 5.68992 17.72 11.704960000000002L17.72 17.72 13.86 17.72L10 17.72 10 18.48004L10 19.240080000000003 14.615 19.235039999999998L19.23 19.23 19.23502 12.150060000000002L19.24006 5.07012 17.085060000000002 2.91506L14.930060000000001 0.76 9.39504 0.76L3.86 0.76 3.86 5.38M4.60004 12.309960000000002L4.07022 12.840060000000001 4.97002 13.74002L5.869840000000001 14.64 3.30492 14.64L0.74 14.64 0.74 15.39L0.74 16.14 3.30492 16.14L5.869840000000001 16.14 4.96998 17.04002L4.07014 17.94004 4.60508 18.474980000000002L5.14004 19.00994 6.945 17.20496L8.74998 15.4 6.939900000000001 13.589939999999999L5.129840000000001 11.77988 4.60004 12.309960000000002" stroke="none" fill="#5136d4" fill-rule="evenodd"></path>
</svg>