<svg xmlns="http://www.w3.org/2000/svg" width="20" height="20" viewBox="0 0 20 20" version="1.1">
	<path d="M9.97658 0.78144C8.586640000000001 0.8429800000000001 7.27086 1.2225400000000002 6.01 1.92568C5.9110000000000005 1.98088 5.6770000000000005 2.12766 5.49 2.25186C3.97038 3.26102 2.8034600000000003 4.707540000000001 2.14848 6.393940000000001C1.3322800000000001 8.49548 1.3373 10.771600000000001 2.16276 12.870000000000001L2.28076 13.17 1.5522200000000002 16.14C1.15154 17.7735 0.82062 19.128 0.81684 19.150000000000002C0.8116200000000001 19.18056 0.8194400000000001 19.18838 0.85 19.18314C0.95336 19.16542 7.06612 17.66054 7.07636 17.6503C7.0876 17.63908 6.74904 16.22238 6.73076 16.2041C6.72584 16.19918 5.85584 16.40768 4.797420000000001 16.66742C3.739 16.92716 2.8700799999999997 17.13674 2.8665 17.13316C2.86292 17.12958 3.08498 16.21018 3.35998 15.09004C3.6350000000000002 13.96992 3.86 13.039079999999998 3.86 13.02152C3.86 13.003979999999999 3.80044 12.859200000000001 3.72764 12.6998C3.12618 11.38278 2.919 9.97092 3.12168 8.57C3.33608 7.0881 4.0125 5.675879999999999 5.01544 4.61632C5.90968 3.67158 6.876799999999999 3.05262 8.08818 2.6498000000000004C8.93336 2.36876 9.64848 2.26458 10.58 2.2868C11.36772 2.30558 11.963040000000001 2.4080000000000004 12.69 2.6497800000000002C14.0272 3.09452 15.1782 3.88698 16.07458 4.98C16.68824 5.72828 17.1783 6.669919999999999 17.44102 7.6055399999999995C17.47568 7.729 17.51132 7.83774 17.52022 7.847200000000001C17.53236 7.8601 18.9482 7.53252 18.97512 7.51058C18.98496 7.502580000000001 18.82182 6.948160000000001 18.73956 6.71C18.31184 5.47172 17.5897 4.3163 16.66122 3.3847000000000005C16.21884 2.94084 15.802100000000001 2.59872 15.27944 2.25034C14.12114 1.47828 12.852260000000001 1.0106 11.43 0.83148C11.214020000000001 0.80428 11.070160000000001 0.7951600000000001 10.5 0.7725400000000001C10.406500000000001 0.76884 10.170960000000001 0.7728400000000001 9.97658 0.78144M12.22 6.96026C10.47088 7.13992 8.891440000000001 8.08514 7.92596 9.53C7.379160000000001 10.34834 7.04564 11.29664 6.95828 12.281559999999999C6.92614 12.643920000000001 6.94558 13.288420000000002 6.9994000000000005 13.644739999999999C7.360900000000001 16.038320000000002 9.14832 17.96014 11.50426 18.48832C11.842139999999999 18.56406 12.10062 18.59916 12.4616 18.61828C13.28684 18.662000000000003 14.08102 18.54232 14.82808 18.26166L15.04616 18.17972 17.07808 18.678C18.19564 18.95204 19.128 19.17936 19.150000000000002 19.18314C19.1806 19.18838 19.18836 19.1806 19.183040000000002 19.150000000000002C19.1792 19.128 18.951900000000002 18.195619999999998 18.6779 17.07806L18.17974 15.046120000000002 18.26166 14.82806C18.4755 14.258920000000002 18.585440000000002 13.72296 18.618940000000002 13.08648C18.72784 11.01796 17.74114 9.057 16.01596 7.91338C15.29312 7.4342 14.505239999999999 7.13036 13.644739999999999 6.998920000000001C13.3345 6.9515400000000005 12.52004 6.92942 12.22 6.96026M12.34 8.46276C11.53362 8.54552 10.644280000000002 8.91324 10.04798 9.41046C9.38258 9.96528 8.92222 10.63672 8.66226 11.43154C8.419160000000002 12.17484 8.377559999999999 12.883740000000001 8.53172 13.65674C8.66086 14.30424 8.99526 15.0106 9.41634 15.525360000000001C9.56096 15.70214 9.9039 16.04194 10.08 16.182940000000002C10.685519999999999 16.66772 11.49538 17.00216 12.29948 17.09948C12.546800000000001 17.12942 13.0624 17.12456 13.333979999999999 17.08972C13.78184 17.03228 14.22836 16.900740000000003 14.64916 16.70224C14.768360000000001 16.646 14.88086 16.6 14.899140000000001 16.6C14.91742 16.6 15.42604 16.72156 16.029400000000003 16.87012C16.63276 17.0187 17.12952 17.13714 17.13334 17.13334C17.13714 17.12952 17.0187 16.63276 16.87012 16.029400000000003C16.72156 15.42604 16.6 14.91742 16.6 14.899140000000001C16.6 14.88086 16.646 14.768360000000001 16.70224 14.64916C16.98608 14.04742 17.12 13.44932 17.12 12.78346C17.12 12.27288 17.0593 11.8993 16.89684 11.41C16.73682 10.92802 16.48132 10.45216 16.1827 10.08C16.03974 9.9018 15.74488 9.60294 15.55098 9.43972C15.03956 9.00914 14.319220000000001 8.66384 13.65674 8.53172C13.21716 8.44406 12.75702 8.41996 12.34 8.46276" stroke="none" fill="#5136d4" fill-rule="evenodd"></path>
</svg>