<svg xmlns="http://www.w3.org/2000/svg" width="20" height="20" viewBox="0 0 20 20" version="1.1">
	<path d="M9.24 6.3849599999999995L9.24 11.24992 7.5749 9.584900000000001L5.90982 7.9199 5.37496 8.45504L4.8401 8.99016 7.420059999999999 11.570060000000002L10 14.149939999999999 12.579939999999999 11.570060000000002L15.1599 8.99016 14.625039999999998 8.45504L14.09018 7.9199 12.4251 9.584900000000001L10.76 11.24992 10.76 6.3849599999999995L10.76 1.52 10 1.52L9.24 1.52 9.24 6.3849599999999995M1.54 16.16L1.54 18.46 10 18.46L18.46 18.46 18.46 16.16L18.46 13.86 17.71 13.86L16.96 13.86 16.96 15.41L16.96 16.96 10 16.96L3.04 16.96 3.04 15.41L3.04 13.86 2.29 13.86L1.54 13.86 1.54 16.16" stroke="none" fill="#5136d4" fill-rule="evenodd"></path>
</svg>