<svg xmlns="http://www.w3.org/2000/svg" width="20" height="20" viewBox="0 0 20 20" version="1.1">
	<path d="M5.38 4.93374L0.77 9.08502 0.76472 9.7225L0.75944 10.36 1.14972 10.36L1.54 10.36 1.54 14.41L1.54 18.46 10 18.46L18.46 18.46 18.46 14.41L18.46 10.36 18.85 10.36L19.240000000000002 10.36 19.23952 9.725L19.23904 9.09 18.849520000000002 8.74168L18.46 8.39334 18.46 5.73668L18.46 3.08 15.50872 3.08L12.55746 3.08 11.28 1.93C10.5774 1.2975 9.99972 0.78056 9.99628 0.7812399999999999C9.99282 0.78192 7.9155 2.65054 5.38 4.93374M6.512440000000001 5.94276L3.04 9.06794 3.04 13.013959999999999L3.04 16.96 10 16.96L16.96 16.96 16.96 13.01482L16.96 9.069640000000001 13.497940000000002 5.9534C11.593800000000002 4.23946 10.0244 2.83276 10.01036 2.8273800000000002C9.99616 2.82192 8.448540000000001 4.20028 6.512440000000001 5.94276M14.29038 4.63726C14.32318 4.66876 14.93724 5.22242 15.655000000000001 5.86762L16.96 7.04072 16.96 5.810359999999999L16.96 4.58 15.59538 4.58L14.23076 4.58 14.29038 4.63726" stroke="none" fill="#5136d4" fill-rule="evenodd"></path>
</svg>