<svg xmlns="http://www.w3.org/2000/svg" width="20" height="20" viewBox="0 0 20 20" version="1.1">
	<path d="M0.7649800000000001 10.005L0.77 17.69 10 17.69L19.23 17.69 19.235039999999998 12.215L19.240080000000003 6.74 17.69004 6.74L16.14 6.74 16.14 4.53L16.14 2.32 8.44998 2.32L0.7599400000000001 2.32 0.7649800000000001 10.005M2.2800000000000002 10L2.2800000000000002 16.18 10 16.18L17.72 16.18 17.72 12.209760000000001L17.72 8.23954 16.935 8.24476L16.15 8.25 16.14494 11.635L16.13988 15.02 15.38994 15.02L14.64 15.02 14.64 9.42L14.64 3.8200000000000003 8.46 3.8200000000000003L2.2800000000000002 3.8200000000000003 2.2800000000000002 10M4.24 7.69L4.24 9.98 8.46 9.98L12.68 9.98 12.68 7.69L12.68 5.4 8.46 5.4L4.24 5.4 4.24 7.69M5.74 7.69L5.74 8.48 8.46 8.48L11.18 8.48 11.18 7.69L11.18 6.9 8.46 6.9L5.74 6.9 5.74 7.69M4.4 13.09L4.4 13.84 8.45 13.84L12.5 13.84 12.5 13.09L12.5 12.34 8.45 12.34L4.4 12.34 4.4 13.09" stroke="none" fill="#5136d4" fill-rule="evenodd"></path>
</svg>